<svg xmlns="http://www.w3.org/2000/svg" xmlns:xlink="http://www.w3.org/1999/xlink" xmlns:fi="http://pattern.flaticon.com/" x="0" y="0" width="676" height="338" viewBox="0 0 676 338"><rect x="0px" y="0px" width="100%" height="100%" opacity="1" fill="transparent"/><defs><g transform="matrix(0.19108662511072244 -0.19108662511072244 0.19108662511072244 0.19108662511072244 -14.836305924729345 82.99989527428968)" id="L1_0"><g><path d="M138.878,250.077c-3.59,0-7.132-0.664-10.375-2.05c-14.698-6.28-15.57-22.441-15.263-29.098   c0.193-4.196,3.74-7.437,7.947-7.246c4.195,0.194,7.439,3.751,7.246,7.947c-0.245,5.292,0.606,12.088,6.047,14.412   c4.599,1.965,11.453,0.303,15.276-3.707c2.991-3.139,3.444-6.923,1.345-11.249c-7.317-15.075-22.514-21.247-40.11-28.392   C79.603,177.95,40.544,162.088,40.544,85.987v-31.79c0-6.129,2.39-11.888,6.729-16.216c4.34-4.328,10.092-6.715,16.233-6.688   c17.029,0.043,32.966,8.438,42.634,22.457l5.913,8.576c3.336,4.837,8.837,7.726,14.713,7.726h35.613c4.2,0,7.604,3.404,7.604,7.604   c0,4.199-3.404,7.604-7.604,7.604h-35.613c-10.877,0-21.058-5.346-27.233-14.301l-5.913-8.576   c-6.837-9.914-18.109-15.852-30.151-15.882c-0.007,0-0.014,0-0.02,0c-2.052,0-3.981,0.798-5.435,2.248   c-1.458,1.454-2.261,3.39-2.261,5.449v31.79c0,29.758,6.275,51.219,19.183,65.611c11.345,12.649,26.815,18.931,41.776,25.006   c18.781,7.627,38.203,15.513,48.069,35.842c4.866,10.026,3.364,20.636-4.017,28.381   C155.082,246.787,146.863,250.077,138.878,250.077z" fill="#ffb125"/><path d="M373.12,250.077c-7.985,0-16.204-3.29-21.885-9.25c-7.381-7.745-8.883-18.354-4.017-28.38   c9.866-20.329,29.288-28.216,48.069-35.843c14.961-6.076,30.432-12.358,41.776-25.006c12.908-14.392,19.183-35.853,19.183-65.611   v-31.79c0-2.059-0.803-3.994-2.261-5.449c-1.458-1.455-3.421-2.263-5.454-2.248c-12.043,0.03-23.315,5.967-30.151,15.883   l-5.912,8.574c-6.175,8.956-16.356,14.302-27.234,14.302h-35.613c-4.2,0-7.604-3.404-7.604-7.604c0-4.2,3.404-7.604,7.604-7.604   h35.613c5.876,0,11.377-2.889,14.714-7.727l5.911-8.574c9.668-14.02,25.606-22.415,42.635-22.458c0.02,0,0.04,0,0.059,0   c6.107,0,11.848,2.374,16.173,6.688c4.339,4.328,6.729,10.087,6.729,16.216v31.79c0,76.101-39.059,91.963-70.446,104.707   c-17.596,7.146-32.793,13.317-40.11,28.393c-2.099,4.325-1.647,8.109,1.345,11.248c3.822,4.01,10.677,5.672,15.276,3.707   c5.441-2.324,6.291-9.12,6.047-14.412c-0.193-4.195,3.051-7.752,7.246-7.947c4.205-0.185,7.753,3.051,7.947,7.246   c0.307,6.657-0.565,22.818-15.263,29.098C380.252,249.413,376.709,250.077,373.12,250.077z" fill="#ffb125"/></g><g><rect x="239px" y="291px" width="33px" height="152px" fill="#fed130"/><path d="M132.634,16.95v98.969c0,70.183,33.356,136.189,89.861,177.817l33.504,24.682l33.504-24.683   c56.505-41.628,89.861-107.634,89.861-177.817V16.95H132.634z" fill="#fed130"/></g><path d="M332.717,16.949v98.969c0,70.183-33.356,136.189-89.861,177.817l-10.18,7.5l23.323,17.183  l33.504-24.683c56.505-41.628,89.861-107.634,89.861-177.817V16.949H332.717z" fill="#f7bc14"/><path d="M388.431,33.899H123.567c-3.858,0-6.985-3.127-6.985-6.985V6.985c0-3.858,3.127-6.985,6.985-6.985  H388.43c3.858,0,6.985,3.127,6.985,6.985v19.929C395.416,30.772,392.289,33.899,388.431,33.899z" fill="#ffb125"/><path d="M388.431,0h-39.404v33.899h39.404c3.858,0,6.985-3.127,6.985-6.985V6.985  C395.416,3.127,392.288,0,388.431,0z" fill="#ff901d"/><path d="M257.383,92.089l17.53,35.519c0.225,0.455,0.659,0.771,1.162,0.844l39.198,5.696  c1.266,0.184,1.771,1.74,0.855,2.632l-28.364,27.648c-0.364,0.355-0.53,0.865-0.444,1.366l6.696,39.039  c0.216,1.261-1.107,2.222-2.239,1.627l-35.059-18.432c-0.45-0.236-0.987-0.236-1.436,0l-35.059,18.432  c-1.132,0.595-2.455-0.366-2.239-1.627l6.696-39.039c0.086-0.501-0.08-1.011-0.444-1.366l-28.364-27.648  c-0.916-0.893-0.411-2.448,0.855-2.632l39.198-5.696c0.503-0.073,0.937-0.389,1.162-0.844l17.53-35.519  C255.181,90.942,256.817,90.942,257.383,92.089z" fill="#ffffff"/><g><path d="M275.033,330.244h-38.068c-7.137,0-12.923-5.786-12.923-12.923v-5.583   c0-7.137,5.786-12.923,12.923-12.923h38.068c7.137,0,12.923,5.786,12.923,12.923v5.583   C287.956,324.458,282.17,330.244,275.033,330.244z" fill="#ffb125"/><path d="M321.459,466.405h-130.92v-27.851c0-9.598,7.781-17.379,17.379-17.379h96.163   c9.598,0,17.379,7.781,17.379,17.379v27.851H321.459z" fill="#ffb125"/></g><g><path d="M304.08,421.175h-28.847v45.229h46.226v-27.851C321.459,428.956,313.679,421.175,304.08,421.175z" fill="#ff901d"/><path d="M357.991,512H154.007c-6.099,0-10.682-5.565-9.512-11.551l7.306-37.391   c0.889-4.55,4.876-7.833,9.512-7.833h189.37c4.636,0,8.623,3.283,9.512,7.833l7.306,37.391   C368.672,506.435,364.089,512,357.991,512z" fill="#ff901d"/></g><path d="M367.503,500.449l-7.306-37.391c-0.889-4.55-4.876-7.833-9.512-7.833h-38.923L322.855,512h35.135  C364.089,512,368.672,506.435,367.503,500.449z" fill="#ff6d3a"/></g><g transform="matrix(0.17278844438917226 -0.17278844438917226 0.17278844438917226 0.17278844438917226 170.53225734493617 258.9999408721924)" id="L1_1"><path d="M156.299,508.917l-23.889-66.395c-0.717-1.992-2.686-3.251-4.795-3.066l-70.29,6.185  c-3.855,0.339-6.421-3.894-4.336-7.155l180.83-282.855l111.625,71.363L164.613,509.849  C162.529,513.11,157.609,512.558,156.299,508.917z" fill="#ff4c4c"/><path d="M306.813,202.296L267.8,177.355L100.951,441.803l26.664-2.346c2.109-0.186,4.078,1.073,4.795,3.066  l8.294,23.05L306.813,202.296z" fill="#e1effb"/><path d="M355.701,508.917l23.889-66.395c0.717-1.992,2.686-3.251,4.795-3.066l70.29,6.185  c3.855,0.339,6.421-3.894,4.336-7.155l-180.83-282.855l-111.625,71.363L347.387,509.85  C349.471,513.11,354.391,512.558,355.701,508.917z" fill="#ff4c4c"/><path d="M205.185,202.296l39.013-24.941l166.849,264.448l-26.664-2.346c-2.109-0.186-4.078,1.073-4.795,3.066  l-8.294,23.05L205.185,202.296z" fill="#e1effb"/><path d="M274.807,8.303L274.807,8.303c7.662,8.402,19.968,10.702,30.148,5.636l0,0  c13.412-6.675,29.659-0.381,35.074,13.588l0,0c4.11,10.602,14.754,17.193,26.076,16.146l0,0  c14.917-1.379,27.794,10.359,27.797,25.34l0,0c0.002,11.371,7.547,21.361,18.483,24.475l0,0c14.408,4.103,22.175,19.7,16.766,33.671  l0,0c-4.106,10.604-0.68,22.645,8.393,29.499l0,0c11.953,9.031,13.561,26.38,3.471,37.453l0,0c-7.659,8.405-8.814,20.87-2.83,30.539  l0,0c7.884,12.739,3.116,29.498-10.294,36.178l0,0c-10.178,5.071-15.758,16.277-13.671,27.455l0,0  c2.75,14.727-7.751,28.631-22.667,30.017l0,0c-11.322,1.051-20.574,9.485-22.666,20.662l0,0  c-2.756,14.725-17.57,23.898-31.98,19.801l0,0c-10.938-3.11-22.611,1.413-28.599,11.079l0,0  c-7.889,12.736-25.017,15.937-36.973,6.912l0,0c-9.076-6.851-21.594-6.851-30.67,0l0,0c-11.957,9.026-29.084,5.824-36.973-6.912l0,0  c-5.988-9.667-17.661-14.189-28.599-11.079l0,0c-14.41,4.097-29.224-5.076-31.98-19.801l0,0  c-2.092-11.177-11.343-19.611-22.666-20.662l0,0c-14.917-1.385-25.417-15.29-22.667-30.017l0,0  c2.087-11.178-3.493-22.384-13.671-27.455l0,0c-13.409-6.68-18.177-23.439-10.294-36.178l0,0c5.984-9.669,4.829-22.134-2.83-30.539  l0,0c-10.09-11.073-8.483-28.423,3.471-37.453l0,0c9.073-6.854,12.499-18.895,8.393-29.499l0,0  c-5.409-13.971,2.358-29.568,16.766-33.671l0,0c10.936-3.114,18.481-13.104,18.483-24.475l0,0  c0.003-14.981,12.88-26.72,27.797-25.34l0,0c11.323,1.047,21.966-5.543,26.076-16.146l0,0c5.415-13.968,21.662-20.263,35.074-13.588  l0,0c10.18,5.066,22.486,2.766,30.148-5.636l0,0C247.288-2.766,264.712-2.766,274.807,8.303z" fill="#ffb125"/><path d="M441.016,194.111L441.016,194.111c10.09-11.073,8.483-28.423-3.471-37.454l0,0  c-9.073-6.854-12.499-18.895-8.393-29.499c5.409-13.971-2.358-29.568-16.766-33.671l0,0c-10.936-3.114-18.481-13.104-18.483-24.475  l0,0c-0.003-14.981-12.88-26.72-27.797-25.34c-11.323,1.047-21.966-5.543-26.076-16.146c-5.415-13.968-21.662-20.263-35.074-13.588  l0,0c-10.18,5.066-22.486,2.766-30.148-5.636c-10.095-11.069-27.519-11.069-37.614,0c-1.327,1.455-2.8,2.714-4.37,3.796  c7.497,5.168,17.361,6.029,25.778,1.84l0,0c13.412-6.675,29.659-0.381,35.074,13.588c4.11,10.602,14.754,17.193,26.076,16.146  c14.917-1.379,27.794,10.359,27.797,25.34l0,0c0.002,11.371,7.547,21.361,18.483,24.475l0,0c14.408,4.103,22.175,19.7,16.766,33.671  c-4.106,10.604-0.68,22.645,8.393,29.499l0,0c11.953,9.031,13.561,26.38,3.471,37.454l0,0c-7.659,8.405-8.814,20.87-2.83,30.539  c7.884,12.739,3.116,29.498-10.294,36.178l0,0c-10.178,5.07-15.758,16.277-13.671,27.455c2.75,14.727-7.751,28.631-22.667,30.017  l0,0c-11.322,1.051-20.574,9.485-22.666,20.662l0,0c-2.756,14.725-17.57,23.898-31.98,19.801  c-10.938-3.11-22.611,1.413-28.599,11.079c-0.471,0.76-0.977,1.485-1.511,2.177c3.863,0.684,7.605,2.253,10.892,4.735l0,0  c11.957,9.026,29.084,5.824,36.973-6.912c5.988-9.667,17.661-14.189,28.599-11.079c14.41,4.097,29.224-5.076,31.98-19.801l0,0  c2.092-11.177,11.343-19.611,22.666-20.662l0,0c14.917-1.385,25.417-15.29,22.667-30.017c-2.087-11.178,3.493-22.384,13.671-27.455  l0,0c13.409-6.68,18.177-23.439,10.294-36.178C432.201,214.982,433.356,202.516,441.016,194.111z" fill="#ff901d"/><circle cx="256" cy="190" r="139" fill="#e1effb"/><path d="M256,51.421c-7.897,0-15.638,0.666-23.177,1.927c66.026,11.041,116.351,68.439,116.351,137.601  S298.85,317.509,232.823,328.55c7.539,1.261,15.28,1.927,23.177,1.927c77.059,0,139.528-62.469,139.528-139.528  S333.059,51.421,256,51.421z" fill="#c3d8e5"/><path d="M345.637,165.163c-0.004-0.014-0.006-0.029-0.011-0.043l0,0c-0.284-0.876-1.024-1.605-2.084-1.759  l-58.892-8.557l-26.337-53.365c-0.472-0.958-1.393-1.438-2.313-1.438s-1.841,0.479-2.314,1.438l-26.337,53.365l-58.892,8.557  c-0.028,0.004-0.054,0.013-0.082,0.018c-0.102,0.018-0.204,0.037-0.3,0.066c-0.041,0.012-0.077,0.03-0.117,0.044  c-0.079,0.028-0.159,0.054-0.234,0.088c-0.031,0.014-0.058,0.033-0.088,0.049c-0.078,0.04-0.157,0.08-0.229,0.128  c-0.011,0.007-0.021,0.017-0.032,0.024c-0.088,0.06-0.173,0.122-0.251,0.191c-0.003,0.003-0.005,0.006-0.008,0.008  c-0.085,0.075-0.165,0.156-0.238,0.241c-0.004,0.005-0.007,0.01-0.011,0.015c-0.222,0.261-0.389,0.563-0.494,0.886l0,0  c-0.283,0.875-0.111,1.897,0.654,2.642l42.615,41.539l-10.06,58.654c-0.009,0.053-0.01,0.105-0.016,0.158  c-0.009,0.077-0.021,0.155-0.023,0.231c-0.001,0.03,0.004,0.059,0.004,0.088c0.001,0.096,0.002,0.193,0.014,0.286  c0.003,0.022,0.009,0.042,0.012,0.064c0.015,0.099,0.031,0.198,0.057,0.292c0.002,0.008,0.006,0.015,0.008,0.023  c0.063,0.222,0.154,0.432,0.27,0.624c0.002,0.003,0.004,0.005,0.005,0.008c0.12,0.196,0.264,0.374,0.429,0.53  c0.001,0.001,0.002,0.001,0.003,0.002c0.083,0.078,0.17,0.151,0.262,0.218l0,0l0,0c0.744,0.54,1.77,0.693,2.716,0.195L256,242.983  l52.674,27.693c0.118,0.062,0.238,0.114,0.358,0.157c0.118,0.042,0.236,0.073,0.355,0.097c0.002,0,0.004,0.001,0.006,0.002  c0.108,0.021,0.216,0.033,0.323,0.039c0.012,0.001,0.025,0.004,0.037,0.005c0.099,0.005,0.197,0,0.295-0.007  c0.02-0.001,0.04,0.001,0.06-0.001c0.097-0.009,0.191-0.027,0.286-0.047c0.02-0.004,0.04-0.005,0.06-0.01  c0.22-0.052,0.43-0.133,0.627-0.238c0.006-0.003,0.012-0.005,0.018-0.008c0.082-0.044,0.16-0.096,0.236-0.149  c0.018-0.012,0.037-0.022,0.055-0.035l0,0c0.745-0.541,1.209-1.47,1.028-2.525l-10.06-58.654l0,0l42.615-41.539l0,0  c0.096-0.093,0.182-0.191,0.259-0.292c0.025-0.033,0.043-0.068,0.066-0.101c0.048-0.07,0.099-0.139,0.139-0.212  c0.055-0.099,0.101-0.201,0.142-0.304c0.003-0.008,0.008-0.016,0.011-0.024c0.032-0.085,0.055-0.171,0.077-0.257  c0.007-0.028,0.019-0.055,0.025-0.083c0.022-0.099,0.036-0.199,0.046-0.299c0.002-0.015,0.006-0.031,0.007-0.046  C345.774,165.812,345.734,165.479,345.637,165.163z" fill="#61aff6"/><g><path d="M253.982,150.325l30.657,4.455l-26.325-53.341c-0.473-0.958-1.394-1.438-2.314-1.438   c-0.92,0-1.841,0.48-2.314,1.438l-17.554,35.568l0.269,0.546C239.803,144.444,246.377,149.22,253.982,150.325z" fill="#49a0e8"/><path d="M345.637,165.164c-0.004-0.014-0.006-0.029-0.011-0.043l0,0c-0.284-0.876-1.024-1.605-2.084-1.759   l-37.318-5.423l-34.817,33.938l11.161,65.074l26.106,13.725c0.118,0.062,0.238,0.114,0.358,0.157   c0.118,0.042,0.236,0.073,0.355,0.097c0.002,0,0.004,0.001,0.006,0.002c0.108,0.021,0.216,0.033,0.323,0.039   c0.012,0.001,0.025,0.004,0.037,0.005c0.099,0.005,0.197,0,0.295-0.007c0.02-0.002,0.04,0,0.06-0.001   c0.097-0.009,0.191-0.027,0.286-0.047c0.02-0.004,0.04-0.005,0.06-0.01c0.22-0.052,0.43-0.133,0.627-0.238   c0.006-0.003,0.012-0.005,0.018-0.008c0.082-0.044,0.16-0.096,0.236-0.149c0.018-0.012,0.037-0.022,0.055-0.035   c0.745-0.541,1.209-1.47,1.028-2.524l-10.06-58.654l0,0l42.614-41.539l0,0c0.096-0.093,0.182-0.191,0.26-0.292   c0.025-0.033,0.043-0.068,0.066-0.101c0.048-0.07,0.099-0.139,0.139-0.212c0.055-0.099,0.101-0.201,0.142-0.304   c0.003-0.008,0.008-0.016,0.011-0.025c0.032-0.085,0.055-0.171,0.077-0.257c0.007-0.028,0.019-0.055,0.025-0.083   c0.022-0.099,0.036-0.199,0.046-0.3c0.001-0.015,0.006-0.031,0.007-0.046C345.774,165.812,345.734,165.479,345.637,165.164z" fill="#49a0e8"/></g></g></defs><g fi:class="KUsePattern"><pattern id="pattern_L1_0" width="350" height="350" patternUnits="userSpaceOnUse"><use xlink:href="#L1_0" x="-350" y="-350"/><use xlink:href="#L1_0" x="0" y="-350"/><use xlink:href="#L1_0" x="350" y="-350"/><use xlink:href="#L1_0" x="-350" y="0"/><use xlink:href="#L1_0" x="0" y="0"/><use xlink:href="#L1_0" x="350" y="0"/><use xlink:href="#L1_0" x="-350" y="350"/><use xlink:href="#L1_0" x="0" y="350"/><use xlink:href="#L1_0" x="350" y="350"/></pattern><rect x="0" y="0" width="100%" height="100%" fill="url(#pattern_L1_0)"/></g><g fi:class="KUsePattern"><pattern id="pattern_L1_1" width="350" height="350" patternUnits="userSpaceOnUse"><use xlink:href="#L1_1" x="-350" y="-350"/><use xlink:href="#L1_1" x="0" y="-350"/><use xlink:href="#L1_1" x="350" y="-350"/><use xlink:href="#L1_1" x="-350" y="0"/><use xlink:href="#L1_1" x="0" y="0"/><use xlink:href="#L1_1" x="350" y="0"/><use xlink:href="#L1_1" x="-350" y="350"/><use xlink:href="#L1_1" x="0" y="350"/><use xlink:href="#L1_1" x="350" y="350"/></pattern><rect x="0" y="0" width="100%" height="100%" fill="url(#pattern_L1_1)"/></g></svg>