<?xml version="1.0" encoding="iso-8859-1"?>
<!-- Generator: Adobe Illustrator 19.0.0, SVG Export Plug-In . SVG Version: 6.00 Build 0)  -->
<svg version="1.1" id="Capa_1" xmlns="http://www.w3.org/2000/svg" xmlns:xlink="http://www.w3.org/1999/xlink" x="0px" y="0px"
	 viewBox="0 0 507.9 507.9" style="enable-background:new 0 0 507.9 507.9;" xml:space="preserve">
<g>
	<path style="fill:#F8B64C;" d="M107.7,243.75c-43.4-10.7-72.1-51.6-72.1-88.9c0-29,17.5-53.3,44.8-66.6v-38.5
		C32.3,65.95,0,105.85,0,154.85c0,61.5,52.3,127.3,130.1,127.3c0.9,0,1.9,0,2.8-0.1C123.2,270.25,114.8,257.35,107.7,243.75z"/>
	<path style="fill:#F8B64C;" d="M427.5,49.75v38.6c27.3,13.3,44.8,37.5,44.8,66.6c0,37.3-28.7,78.2-72.1,88.9
		c-7.1,13.6-15.5,26.5-25.2,38.4c0.9,0.1,1.9,0.1,2.8,0.1c77.8,0,130.1-65.8,130.1-127.3C508,105.85,475.7,65.95,427.5,49.75z"/>
	<path style="fill:#F8B64C;" d="M436,0.15H72c-0.6,0-1.1,0.5-1.1,1.1v23.1c0,0.6,0.5,1.1,1.1,1.1h364c0.6,0,1.1-0.5,1.1-1.1V1.15
		C437.1,0.55,436.6,0.15,436,0.15z"/>
</g>
<path style="fill:#FFD15C;" d="M424.4,25.35H83.5c-1.1,0-2.1-0.2-3.1-0.4v108.8c0,84.7,45.2,162.9,118.6,205.1l54.9,31.6l54.9-31.6
	c73.4-42.2,118.6-120.5,118.6-205.1V24.95C426.5,25.15,425.5,25.35,424.4,25.35z"/>
<path style="fill:#F8B64C;" d="M273.6,376.35v-17.2l-19.6,11.3l-19.6-11.3v17.2c-9.1,6.3-15,16.7-15,28.5h69.3
	C288.7,393.05,282.7,382.65,273.6,376.35z"/>
<polygon style="fill:#40596B;" points="379.1,486.45 379.1,404.95 128.9,404.95 128.9,486.45 107.3,486.45 107.3,507.75
	128.9,507.75 379.1,507.75 400.6,507.75 400.6,486.45 "/>
<path style="fill:#FFFFFF;" d="M345.7,124.65h-62.1c-2.4,0-4.5-1.5-5.2-3.8l-19.2-59.1c-1.6-5.1-8.8-5.1-10.4,0l-19.2,59.1
	c-0.7,2.3-2.8,3.8-5.2,3.8h-62.1c-5.3,0-7.5,6.8-3.2,9.9l50.3,36.5c1.9,1.4,2.7,3.9,2,6.1l-19.2,59.1c-1.6,5.1,4.1,9.3,8.4,6.1
	l50.3-36.5c1.9-1.4,4.5-1.4,6.4,0l50.3,36.5c4.3,3.1,10.1-1.1,8.4-6.1l-19.2-59.1c-0.7-2.3,0.1-4.7,2-6.1l50.3-36.5
	C353.3,131.45,351,124.65,345.7,124.65z"/>
</svg>